<?xml version="1.0" encoding="utf-8"?>
<!-- Generator: Adobe Illustrator 24.0.2, SVG Export Plug-In . SVG Version: 6.00 Build 0)  -->
<svg version="1.1" id="Capa_1" xmlns="http://www.w3.org/2000/svg" xmlns:xlink="http://www.w3.org/1999/xlink" x="0px" y="0px"
	 viewBox="0 0 24 24" style="enable-background:new 0 0 24 24;" xml:space="preserve">
<path d="M12,5.8c-3.4,0-6.2,2.7-6.2,6.2s2.7,6.2,6.2,6.2c3.4,0,6.2-2.7,6.2-6.2S15.4,5.8,12,5.8z M12,16c-2.2,0-4-1.8-4-4s1.8-4,4-4
	s4,1.8,4,4S14.2,16,12,16z M18.4,4.2c-0.8,0-1.4,0.6-1.4,1.4S17.6,7,18.4,7s1.4-0.6,1.4-1.4c0-0.2,0-0.4-0.1-0.6s-0.2-0.3-0.3-0.5
	c-0.1-0.1-0.3-0.2-0.5-0.3C18.8,4.2,18.6,4.2,18.4,4.2z M24,12c0-1.7,0-3.3-0.1-5c-0.1-1.9-0.5-3.6-1.9-5s-3.1-1.8-5-1.9
	C15.3,0,13.7,0,12,0S8.7,0,7,0.1C5.1,0.2,3.4,0.6,2,2S0.2,5.1,0.1,7C0,8.7,0,10.3,0,12s0,3.3,0.1,5c0.1,1.9,0.5,3.6,1.9,5
	s3.1,1.8,5,1.9C8.7,24,10.3,24,12,24s3.3,0,5-0.1c1.9-0.1,3.6-0.5,5-1.9s1.8-3.1,1.9-5C24,15.3,24,13.7,24,12z M21.4,19.1
	c-0.2,0.5-0.5,1-0.9,1.4s-0.8,0.7-1.4,0.9c-1.6,0.6-5.3,0.5-7.1,0.5S6.5,22,4.9,21.4c-0.5-0.2-1-0.5-1.4-0.9s-0.7-0.8-0.9-1.4
	C2,17.5,2.2,13.8,2.2,12S2,6.5,2.6,4.9c0.2-0.5,0.5-1,0.9-1.4C4,3.1,4.4,2.9,4.9,2.6C6.5,2,10.2,2.2,12,2.2s5.5-0.1,7.1,0.5
	c0.5,0.2,1,0.5,1.4,0.9s0.7,0.8,0.9,1.4c0.6,1.6,0.5,5.3,0.5,7.1S22,17.5,21.4,19.1z"/>
</svg>
